# xmcd
#
# Track frame offsets:
#	150
#	11847
#	22462
#	29747
#	39977
#	50287
#	61182
#	71235
#	80465
#	90677
#	100245
#	113477
#	121617
#	132110
#	143037
#	154595
#	174690
#	188560
#
# Disc length: 2699 seconds
#
# Revision: 1
# Processed by: cddbd v1.5.1PL0 Copyright (c) Steve Scherf et al.
# Submitted via: audiograbber 1.83.01
#
DISCID=ed0a8912
DTITLE=Fats Domino - The Domino Effect
DYEAR=1900
DGENRE=
TTITLE0=I'm Walking
TTITLE1=Blueberry Hill
TTITLE2=Whole Lotta Lovin'
TTITLE3=Blue Monday
TTITLE4=I Want To Walk You Home
TTITLE5=Ain't That A Shame
TTITLE6=Be My Guest
TTITLE7=My Girl Josephine
TTITLE8=Let The Four Winds Blow
TTITLE9=My Blue Heaven
TTITLE10=When The Saints Go Marching In
TTITLE11=Sheek Of Arabi
TTITLE12=The Fat Man
TTITLE13=I'm Gonna Be A Wheel Some Day
TTITLE14=Goin' To The River
TTITLE15=Jambalaya (On The Bayou)
TTITLE16=Red Sails In The Sunset
TTITLE17=Walking To New Orleans
EXTD=Werbe-CD der Firma Schwarz Pharma
EXTT0=
EXTT1=
EXTT2=
EXTT3=
EXTT4=
EXTT5=
EXTT6=
EXTT7=
EXTT8=
EXTT9=
EXTT10=
EXTT11=
EXTT12=
EXTT13=
EXTT14=
EXTT15=
EXTT16=
EXTT17=
PLAYORDER=
